<?xml version="1.0" ?><svg id="Layer_1" style="enable-background:new 0 0 50 50;" version="1.1" viewBox="0 0 50 50" xml:space="preserve" xmlns="http://www.w3.org/2000/svg" xmlns:xlink="http://www.w3.org/1999/xlink"><style type="text/css">
	.st0{fill:#F0C4DB;}
	.st1{fill:#FF9D9C;}
	.st2{fill:#9BEAF9;}
	.st3{fill:#E9F4BC;}
	.st4{fill:#505050;}
	.st5{fill:#FEBECC;}
	.st6{fill:#FFFFFF;}
	.st7{fill:#FDE4A1;}
	.st8{fill:#FEE7B5;}
	.st9{fill:#CDF6FC;}
	.st10{fill:#F2C6DD;}
	.st11{opacity:0.1;}
</style><g><path class="st5" d="M17.68,13.34c-5.61,0-10.7,2.22-14.47,5.8v29.73h29.6c3.63-3.77,5.87-8.89,5.87-14.54   C38.68,22.74,29.28,13.34,17.68,13.34z"/><g><polyline class="st9" points="16.37,44.37 8.39,44.37 8.39,1.88 41.02,1.88 41.02,5.38   "/><rect class="st6" height="42.49" width="29.66" x="16.37" y="5.38"/><g><path class="st4" d="M16.37,33.79c-0.41,0-0.75,0.33-0.75,0.75c0,0.41,0.34,0.74,0.75,0.74c0.41,0,0.75-0.33,0.75-0.74     C17.12,34.12,16.78,33.79,16.37,33.79z"/><path class="st4" d="M46.57,4.85c-0.14-0.14-0.34-0.22-0.54-0.22h-4.26V1.87c0-0.41-0.34-0.75-0.75-0.75H8.4     c-0.41,0-0.75,0.34-0.75,0.75v42.49c0,0.41,0.34,0.75,0.75,0.75h7.23v2.76c0,0.2,0.08,0.39,0.22,0.53s0.33,0.22,0.53,0.22h29.66     c0.21,0,0.39-0.08,0.53-0.22c0.14-0.14,0.22-0.33,0.22-0.53V13.61c0-0.02,0-0.03,0-0.05V5.38C46.78,5.18,46.7,4.99,46.57,4.85z      M45.28,47.12H17.12v-2.75c0,0,0,0,0-0.01s0,0,0-0.01v-7.82c0-0.42-0.34-0.75-0.75-0.75c-0.41,0-0.75,0.33-0.75,0.75v7.07H9.15     V2.62h31.13v2.01h-23.9c-0.2,0-0.39,0.08-0.53,0.22c-0.14,0.14-0.22,0.33-0.22,0.53v27.16c0,0.41,0.34,0.75,0.75,0.75     c0.41,0,0.75-0.34,0.75-0.75V6.13h28.16V47.12z"/><path class="st4" d="M30.58,13.27h11.33c0.41,0,0.75-0.34,0.75-0.75s-0.34-0.75-0.75-0.75H30.58c-0.41,0-0.75,0.34-0.75,0.75     S30.16,13.27,30.58,13.27z"/><path class="st4" d="M30.58,18.06h11.33c0.41,0,0.75-0.34,0.75-0.75s-0.34-0.75-0.75-0.75H30.58c-0.41,0-0.75,0.34-0.75,0.75     S30.16,18.06,30.58,18.06z"/><path class="st4" d="M30.58,22.84h11.33c0.41,0,0.75-0.34,0.75-0.75s-0.34-0.75-0.75-0.75H30.58c-0.41,0-0.75,0.34-0.75,0.75     S30.16,22.84,30.58,22.84z"/><path class="st4" d="M20.5,27.63h21.41c0.41,0,0.75-0.34,0.75-0.75s-0.34-0.75-0.75-0.75H20.5c-0.41,0-0.75,0.34-0.75,0.75     S20.09,27.63,20.5,27.63z"/><path class="st4" d="M20.5,32.42h21.41c0.41,0,0.75-0.34,0.75-0.75s-0.34-0.75-0.75-0.75H20.5c-0.41,0-0.75,0.34-0.75,0.75     S20.09,32.42,20.5,32.42z"/><path class="st4" d="M20.5,37.21h14.53c0.41,0,0.75-0.34,0.75-0.75s-0.34-0.75-0.75-0.75H20.5c-0.41,0-0.75,0.34-0.75,0.75     S20.09,37.21,20.5,37.21z"/><path class="st4" d="M20.5,41.61h14.53c0.41,0,0.75-0.34,0.75-0.75s-0.34-0.75-0.75-0.75H20.5c-0.41,0-0.75,0.34-0.75,0.75     S20.09,41.61,20.5,41.61z"/><path class="st4" d="M23.64,19.9c-0.71,0-1.28-0.57-1.28-1.28c0-0.41-0.34-0.75-0.75-0.75s-0.75,0.34-0.75,0.75     c0,1.27,0.86,2.33,2.03,2.66v0.41c0,0.41,0.34,0.75,0.75,0.75s0.75-0.34,0.75-0.75v-0.41c1.17-0.33,2.03-1.39,2.03-2.66     c0-1.53-1.25-2.78-2.78-2.78c-0.71,0-1.28-0.57-1.28-1.28s0.57-1.28,1.28-1.28s1.28,0.57,1.28,1.28c0,0.41,0.34,0.75,0.75,0.75     s0.75-0.34,0.75-0.75c0-1.27-0.86-2.33-2.03-2.66v-0.41c0-0.41-0.34-0.75-0.75-0.75s-0.75,0.34-0.75,0.75v0.41     c-1.17,0.33-2.03,1.39-2.03,2.66c0,1.53,1.25,2.78,2.78,2.78c0.71,0,1.28,0.57,1.28,1.28S24.35,19.9,23.64,19.9z"/></g></g></g></svg>